<svg xmlns="http://www.w3.org/2000/svg" width="1080" height="1350" viewBox="0 0 1080 1350">
  <style>
    text { dominant-baseline: alphabetic; letter-spacing: 0; }
    .strokeText { paint-order: stroke; stroke: #1b1712; stroke-width: 8px; stroke-linejoin: round; }
  </style>
  <rect width="1080" height="1350" fill="#f4f1ea"/>
  <filter id="grain"><feTurbulence type="fractalNoise" baseFrequency="0.75" numOctaves="2" stitchTiles="stitch"/><feColorMatrix type="saturate" values="0"/></filter>
  <rect width="1080" height="1350" filter="url(#grain)" opacity="0.05"/>
  <path d="M 56 110 H 1024" stroke="#ddd7cc" stroke-width="2" opacity="0.45"/><path d="M 56 152 H 1024" stroke="#ddd7cc" stroke-width="2" opacity="0.45"/><path d="M 56 194 H 1024" stroke="#ddd7cc" stroke-width="2" opacity="0.45"/><path d="M 56 236 H 1024" stroke="#ddd7cc" stroke-width="2" opacity="0.45"/><path d="M 56 278 H 1024" stroke="#ddd7cc" stroke-width="2" opacity="0.45"/><path d="M 56 320 H 1024" stroke="#ddd7cc" stroke-width="2" opacity="0.45"/><path d="M 56 362 H 1024" stroke="#ddd7cc" stroke-width="2" opacity="0.45"/><path d="M 56 404 H 1024" stroke="#ddd7cc" stroke-width="2" opacity="0.45"/><path d="M 56 446 H 1024" stroke="#ddd7cc" stroke-width="2" opacity="0.45"/><path d="M 56 488 H 1024" stroke="#ddd7cc" stroke-width="2" opacity="0.45"/><path d="M 56 530 H 1024" stroke="#ddd7cc" stroke-width="2" opacity="0.45"/><path d="M 56 572 H 1024" stroke="#ddd7cc" stroke-width="2" opacity="0.45"/><path d="M 56 614 H 1024" stroke="#ddd7cc" stroke-width="2" opacity="0.45"/><path d="M 56 656 H 1024" stroke="#ddd7cc" stroke-width="2" opacity="0.45"/><path d="M 56 698 H 1024" stroke="#ddd7cc" stroke-width="2" opacity="0.45"/><path d="M 56 740 H 1024" stroke="#ddd7cc" stroke-width="2" opacity="0.45"/><path d="M 56 782 H 1024" stroke="#ddd7cc" stroke-width="2" opacity="0.45"/><path d="M 56 824 H 1024" stroke="#ddd7cc" stroke-width="2" opacity="0.45"/><path d="M 56 866 H 1024" stroke="#ddd7cc" stroke-width="2" opacity="0.45"/><path d="M 56 908 H 1024" stroke="#ddd7cc" stroke-width="2" opacity="0.45"/><path d="M 56 950 H 1024" stroke="#ddd7cc" stroke-width="2" opacity="0.45"/><path d="M 56 992 H 1024" stroke="#ddd7cc" stroke-width="2" opacity="0.45"/><path d="M 56 1034 H 1024" stroke="#ddd7cc" stroke-width="2" opacity="0.45"/><path d="M 56 1076 H 1024" stroke="#ddd7cc" stroke-width="2" opacity="0.45"/><path d="M 56 1118 H 1024" stroke="#ddd7cc" stroke-width="2" opacity="0.45"/><path d="M 56 1160 H 1024" stroke="#ddd7cc" stroke-width="2" opacity="0.45"/><path d="M 56 1202 H 1024" stroke="#ddd7cc" stroke-width="2" opacity="0.45"/><path d="M 56 1244 H 1024" stroke="#ddd7cc" stroke-width="2" opacity="0.45"/><path d="M 56 1286 H 1024" stroke="#ddd7cc" stroke-width="2" opacity="0.45"/><path d="M 56 1328 H 1024" stroke="#ddd7cc" stroke-width="2" opacity="0.45"/>
  
    <g transform="rotate(-3 147.16 95.95)">
    <path d="M 83.17125472170301 61.12499216152355 L 211.24648027627728 62.18977578729391 Q 225.00890891596674 61.466793075203896 226.19643973506055 74.65416670986451 L 224.3160078683216 117.18622327861377 Q 226.2064537924528 128.0568045122549 213.72794452861882 127.97015861850232 L 83.42933494760655 128.40772675708868 Q 71.66079114563763 128.14873235542328 69.62112833629362 119.57498723720201 L 70.40660204715095 72.20503349415958 Q 68.51209789607674 60.76773448474705 83.17125472170301 61.12499216152355 Z" fill="#55b84a" stroke="#24211d" stroke-width="3" stroke-linejoin="round" opacity="1" />
    <text x="88" y="101" fill="#24211d" font-size="34" font-weight="800" font-family="Rubik, Nunito, Arial, sans-serif" text-anchor="start"><tspan x="88" dy="0">разбор</tspan></text>
  </g>
    <text x="70" y="190" fill="#24211d" font-size="82" font-weight="900" font-family="Rubik, Nunito, Arial, sans-serif" text-anchor="start"><tspan x="70" dy="0">Задача за</tspan><tspan x="70" dy="95.11999999999999">40 секунд</tspan></text>
    <path d="M 91.16010078275576 307.3192417284008 L 976.9695529488381 302.93863557162695 Q 1001.750360106118 306.65978120919317 1000.1257774443366 325.08468559058383 L 998.853679994354 452.7972445259802 Q 1000.0393211273476 474.28087984770536 979.8873879010789 476.4157638035249 L 92.71945280535147 474.14842668222263 Q 71.12440340407193 474.53917809110135 67.95126113924198 452.6907781390473 L 70.85660883807577 326.2973481223453 Q 71.8614740204066 305.53324753884226 91.16010078275576 307.3192417284008 Z" fill="#fffaf0" stroke="#24211d" stroke-width="4" stroke-linejoin="round" opacity="1" />
    <text x="112" y="368" fill="#24211d" font-size="35" font-weight="700" font-family="Rubik, Nunito, Arial, sans-serif" text-anchor="start"><tspan x="112" dy="0">Тело тронулось с места и за 5 с набрало 20</tspan><tspan x="112" dy="40.599999999999994">м/с. Найти ускорение и путь.</tspan></text>
    <path d="M 99.438208991196 541.4710667484906 L 480.7734668829944 541.81481562322 Q 505.0347191337496 539.099788563326 506.2959479019046 563.812153155217 L 503.5455904053524 784.3047655220143 Q 506.62399119511247 808.3565402897075 483.4055190840736 809.8149009125773 L 98.93388206139207 806.0399988987483 Q 75.49915110692382 808.0599695825949 74.5586432449054 785.0171918710694 L 76.11002991348505 563.0050480153877 Q 74.73109023086727 541.6188193894923 99.438208991196 541.4710667484906 Z" fill="#e8ece4" stroke="#24211d" stroke-width="4" stroke-linejoin="round" opacity="1" />
    <text x="116" y="612" fill="#6e7a61" font-size="46" font-weight="900" font-family="Rubik, Nunito, Arial, sans-serif" text-anchor="start"><tspan x="116" dy="0">дано</tspan></text>
    <text x="116" y="680" fill="#24211d" font-size="42" font-weight="800" font-family="JetBrains Mono, Consolas, monospace" text-anchor="start"><tspan x="116" dy="0">v₀ = 0</tspan><tspan x="116" dy="48.72">t = 5 c</tspan><tspan x="116" dy="48.72">v = 20 м/с</tspan></text>
    <path d="M 580.2538453543093 541.1974785674829 L 976.6004154961556 537.5819877989125 Q 1000.2798115126789 538.5079151829705 999.7326417546719 565.594616828952 L 998.8302423036657 784.4606438439805 Q 998.3224000083283 807.098735479638 977.4502005954273 810.3136919829994 L 579.1121545992792 809.5422155545093 Q 557.3525155521929 806.9235881296918 554.6343825131189 785.5969363867771 L 557.7778436676599 564.6416919233743 Q 556.9207333102822 540.2527335295454 580.2538453543093 541.1974785674829 Z" fill="#fff7df" stroke="#24211d" stroke-width="4" stroke-linejoin="round" opacity="1" />
    <text x="596" y="612" fill="#9e6b55" font-size="46" font-weight="900" font-family="Rubik, Nunito, Arial, sans-serif" text-anchor="start"><tspan x="596" dy="0">найти</tspan></text>
    <text x="596" y="680" fill="#24211d" font-size="44" font-weight="800" font-family="JetBrains Mono, Consolas, monospace" text-anchor="start"><tspan x="596" dy="0">a — ?</tspan><tspan x="596" dy="51.04">s — ?</tspan></text>
    <g transform="translate(96 900)">
    <path d="M -6.686558387707919 -29.701962900115177 L 350.52475420641713 -27.10790344933048 Q 367.82127360627055 -28.160438048653305 365.94641803903505 -13.705295784631744 L 364.4781327866949 266.88242129422724 Q 366.6775792837143 282.16613870766014 349.02012814069167 281.6538063941989 L -5.784387073479593 282.97711190697737 Q -23.090140436775982 280.42846127972007 -23.796525856945664 266.2239791501779 L -22.354335819603875 -11.867458953522146 Q -23.619921910576522 -27.388262023217976 -6.686558387707919 -29.701962900115177 Z" fill="#fff7df" stroke="#24211d" stroke-width="4" stroke-linejoin="round" opacity="1" />
    <path d="M 38 226 H 318 M 38 226 V 34" stroke="#24211d" stroke-width="5" stroke-linecap="round"/>
    <path d="M 38 226 L 292 62" stroke="#e65a3a" stroke-width="8" stroke-linecap="round"/>
    <path d="M 38 226 L 292 226 L 292 62 Z" fill="#e8c14a" opacity="0.36"/>
    <text x="302" y="252" fill="#24211d" font-size="32" font-weight="800" font-family="Rubik, Nunito, Arial, sans-serif" text-anchor="start"><tspan x="302" dy="0">t</tspan></text>
    <text x="16" y="38" fill="#24211d" font-size="32" font-weight="800" font-family="Rubik, Nunito, Arial, sans-serif" text-anchor="start"><tspan x="16" dy="0">v</tspan></text>
    <text x="108" y="184" fill="#9e6b55" font-size="26" font-weight="800" font-family="Rubik, Nunito, Arial, sans-serif" text-anchor="start" transform="rotate(-27 108 184)"><tspan x="108" dy="0">путь = площадь</tspan></text>
    <path d="M 260 118 Q 230.3145088814199 131.77970763668418 190 164" fill="none" stroke="#9e6b55" stroke-width="4" stroke-linecap="round"/>
  <path d="M 190 164 L 199.04959543672862 143.94744848076584 M 190 164 L 211.99722141957247 163.65035758509347" fill="none" stroke="#9e6b55" stroke-width="4" stroke-linecap="round"/>
  </g>
    <path d="M 545.1030561558437 885.7414064449258 L 973.8303028608207 885.4928694430273 Q 998.4364836337045 884.6892796969041 1001.582235012902 907.2055088968482 L 999.7175004694145 1180.3344293828122 Q 1001.8417401975021 1206.418013743125 978.2812655824237 1205.136555994628 L 544.0955361069646 1204.1141246925108 Q 521.7182877697051 1205.783329732716 520.9111283975653 1181.805312100798 L 519.8651993693784 909.9550226291176 Q 519.0533789796755 884.5059948796406 545.1030561558437 885.7414064449258 Z" fill="#fffaf0" stroke="#24211d" stroke-width="4" stroke-linejoin="round" opacity="1" />
    <text x="562" y="958" fill="#e65a3a" font-size="46" font-weight="900" font-family="Rubik, Nunito, Arial, sans-serif" text-anchor="start"><tspan x="562" dy="0">решение</tspan></text>
    <text x="562" y="1030" fill="#24211d" font-size="32" font-weight="800" font-family="JetBrains Mono, Consolas, monospace" text-anchor="start"><tspan x="562" dy="0">a = (v − v₀)/t</tspan><tspan x="562" dy="37.12">a = 20/5 = 4 м/с²</tspan><tspan x="562" dy="37.12">s = (v + v₀)t/2</tspan><tspan x="562" dy="37.12">s = 20·5/2 = 50 м</tspan></text>
    <text x="96" y="1226" fill="#6e625a" font-size="28" font-weight="800" font-family="Rubik, Nunito, Arial, sans-serif" text-anchor="start"><tspan x="96" dy="0">путь — это площадь под графиком v(t)</tspan></text>
    <g transform="rotate(2 662.9 1301.25)">
    <path d="M 420.2814758492168 1270.6259613053408 L 902.8033229102846 1270.9797714359593 Q 916.57372131031 1268.363983209245 916.2250455053988 1281.746995009482 L 917.393797764508 1319.1940727871843 Q 914.3112288054078 1330.6575351599604 903.8330883299466 1330.3006903233472 L 422.07091957028024 1330.3667921479791 Q 410.22394563350827 1332.276383289136 410.34727327525616 1319.1017989041284 L 408.30273809377104 1284.2736631997395 Q 411.010874517262 1271.0967416279018 420.2814758492168 1270.6259613053408 Z" fill="#e8c14a" stroke="#24211d" stroke-width="3" stroke-linejoin="round" opacity="1" />
    <text x="428" y="1305" fill="#24211d" font-size="30" font-weight="800" font-family="Rubik, Nunito, Arial, sans-serif" text-anchor="start"><tspan x="428" dy="0">ответ: a = 4 м/с², s = 50 м</tspan></text>
  </g>
  
</svg>